<svg width="14" height="15" viewBox="0 0 14 15" fill="none" xmlns="http://www.w3.org/2000/svg">
<g clip-path="url(#clip0_2426_36088)">
<path d="M11.6667 0.0214844H2.33333C1.0465 0.0214844 0 1.06798 0 2.35482V9.35482C0 10.6417 1.0465 11.6882 2.33333 11.6882H4.03842L6.22533 13.5297C6.44817 13.7275 6.72758 13.8255 7.00525 13.8255C7.27825 13.8255 7.54833 13.7304 7.75892 13.5432L10.0036 11.6882H11.6673C12.9541 11.6882 14.0006 10.6417 14.0006 9.35482V2.35482C14.0006 1.06798 12.9535 0.0214844 11.6667 0.0214844ZM12.8333 9.35482C12.8333 9.99823 12.3101 10.5215 11.6667 10.5215H9.793C9.65767 10.5215 9.52583 10.5687 9.42142 10.6551L6.98833 12.6477L4.627 10.6586C4.52142 10.5699 4.38842 10.5215 4.25075 10.5215H2.33275C1.68933 10.5215 1.16608 9.99823 1.16608 9.35482V2.35482C1.16608 1.7114 1.68933 1.18815 2.33275 1.18815H11.6661C12.3095 1.18815 12.8328 1.7114 12.8328 2.35482L12.8333 9.35482ZM7.51275 2.86757L4.18367 6.19665C3.74267 6.63707 3.5 7.22332 3.5 7.84632V8.77148C3.5 9.09348 3.76075 9.35482 4.08333 9.35482H5.0085C5.6315 9.35482 6.21775 9.11157 6.65817 8.67115L9.98725 5.34207C10.3174 5.01132 10.5 4.57207 10.5 4.10423C10.5 3.6364 10.3174 3.19715 9.98725 2.86698C9.30475 2.18448 8.19525 2.18448 7.51275 2.86698V2.86757ZM9.16242 4.51723L5.83333 7.84632C5.61283 8.06682 5.32 8.18815 5.0085 8.18815H4.66667V7.84632C4.66667 7.53948 4.7915 7.23848 5.0085 7.02148L8.33758 3.6924C8.56567 3.4649 8.93433 3.4649 9.16242 3.6924C9.27267 3.80207 9.33333 3.94848 9.33333 4.10482C9.33333 4.26115 9.27267 4.40698 9.16242 4.51723Z" fill="#1470F5"/>
</g>
<defs>
<clipPath id="clip0_2426_36088">
<rect width="14" height="14" fill="white" transform="translate(0 0.0214844)"/>
</clipPath>
</defs>
</svg>
