<svg width="14" height="15" viewBox="0 0 14 15" fill="none" xmlns="http://www.w3.org/2000/svg">
<g clip-path="url(#clip0_2426_36090)">
<path d="M12.8334 2.35482H9.91675V1.18815C9.91675 0.878732 9.79383 0.581986 9.57504 0.363193C9.35625 0.144401 9.0595 0.0214844 8.75008 0.0214844L5.25008 0.0214844C4.94066 0.0214844 4.64392 0.144401 4.42512 0.363193C4.20633 0.581986 4.08341 0.878732 4.08341 1.18815V2.35482H1.16675V3.52148H2.33341V12.2715C2.33341 12.7356 2.51779 13.1807 2.84598 13.5089C3.17417 13.8371 3.61929 14.0215 4.08341 14.0215H9.91675C10.3809 14.0215 10.826 13.8371 11.1542 13.5089C11.4824 13.1807 11.6667 12.7356 11.6667 12.2715V3.52148H12.8334V2.35482ZM5.25008 1.18815H8.75008V2.35482H5.25008V1.18815ZM10.5001 12.2715C10.5001 12.4262 10.4386 12.5746 10.3292 12.684C10.2198 12.7934 10.0715 12.8548 9.91675 12.8548H4.08341C3.92871 12.8548 3.78033 12.7934 3.67094 12.684C3.56154 12.5746 3.50008 12.4262 3.50008 12.2715V3.52148H10.5001V12.2715Z" fill="#EF4B7D"/>
<path d="M6.41667 5.85498H5.25V10.5216H6.41667V5.85498Z" fill="#EF4B7D"/>
<path d="M8.75016 5.85498H7.5835V10.5216H8.75016V5.85498Z" fill="#EF4B7D"/>
</g>
<defs>
<clipPath id="clip0_2426_36090">
<rect width="14" height="14" fill="white" transform="translate(0 0.0214844)"/>
</clipPath>
</defs>
</svg>
