<?xml version="1.0" standalone="no"?>
<!DOCTYPE svg PUBLIC "-//W3C//DTD SVG 20010904//EN"
 "http://www.w3.org/TR/2001/REC-SVG-20010904/DTD/svg10.dtd">
<svg version="1.0" xmlns="http://www.w3.org/2000/svg"
 width="6348.000000pt" height="2214.000000pt" viewBox="0 0 6348.000000 2214.000000"
 preserveAspectRatio="xMidYMid meet">

<g transform="translate(0.000000,2214.000000) scale(0.100000,-0.100000)"
fill="#000000" stroke="none">
<path d="M19275 17513 c-227 -30 -445 -118 -670 -268 -500 -333 -890 -892
-980 -1405 -18 -100 -18 -320 -2 -400 11 -49 15 -56 42 -61 60 -13 273 -9 355
7 632 120 1278 832 1440 1591 24 109 38 413 23 493 l-9 45 -84 1 c-47 1 -98 0
-115 -3z"/>
<path d="M33998 15371 c-191 -438 -350 -804 -354 -813 -6 -16 3 -18 93 -18
l100 0 100 238 100 237 310 3 310 2 100 -237 101 -238 101 -3 102 -3 -14 33
c-45 105 -689 1573 -695 1583 -4 8 -153 -323 -354 -784z m480 89 l119 -275
-245 -3 c-135 -1 -247 0 -249 2 -3 2 46 121 107 263 62 142 116 269 121 282 6
15 13 21 19 15 5 -5 62 -133 128 -284z"/>
<path d="M39380 15358 l0 -818 90 0 90 0 2 587 3 587 559 -604 c307 -333 565
-612 573 -620 11 -12 13 117 13 803 l0 817 -90 0 -90 0 -2 -593 -3 -593 -525
573 c-289 315 -546 597 -572 626 l-47 52 -1 -817z"/>
<path d="M27941 15559 c-116 -341 -207 -595 -211 -587 -4 7 -94 266 -201 576
l-193 562 -98 0 c-54 0 -98 -3 -98 -6 0 -10 593 -1599 600 -1607 4 -4 96 259
205 585 109 326 201 596 204 600 3 4 93 -250 199 -565 107 -315 199 -585 206
-601 11 -27 29 19 311 774 165 441 302 806 303 811 2 5 -41 9 -96 9 l-100 0
-30 -82 c-16 -46 -105 -302 -198 -570 -92 -269 -171 -488 -174 -488 -3 0 -98
268 -211 595 -112 327 -206 595 -209 595 -3 0 -97 -271 -209 -601z"/>
<path d="M29350 15351 l0 -811 85 0 85 0 2 590 3 591 569 -616 c314 -338 571
-615 573 -615 2 0 3 365 3 810 l0 810 -85 0 -85 0 -2 -596 -3 -595 -563 615
c-310 339 -568 618 -573 622 -5 3 -9 -315 -9 -805z"/>
<path d="M26021 16129 c-309 -60 -563 -300 -641 -603 -28 -109 -28 -289 0
-405 70 -289 299 -513 615 -599 94 -26 318 -23 417 5 297 86 517 301 592 578
24 87 32 258 16 352 -52 327 -294 584 -622 663 -89 21 -290 26 -377 9z m333
-176 c204 -50 385 -221 452 -425 24 -73 28 -99 28 -208 0 -109 -4 -134 -27
-198 -71 -201 -225 -354 -420 -418 -69 -23 -100 -27 -192 -28 -189 0 -316 53
-455 193 -143 143 -196 279 -187 481 3 97 9 128 34 196 119 318 440 489 767
407z"/>
<path d="M32571 16129 c-252 -49 -483 -229 -592 -462 -48 -104 -69 -205 -69
-339 0 -152 19 -236 80 -363 109 -225 293 -371 555 -443 94 -26 318 -23 417 5
298 86 517 300 592 578 24 86 32 258 16 352 -52 327 -294 584 -622 663 -89 21
-290 26 -377 9z m333 -176 c205 -51 387 -222 451 -425 91 -286 -12 -581 -261
-747 -111 -74 -210 -104 -349 -105 -189 0 -316 53 -455 193 -143 143 -196 282
-187 486 3 88 10 125 32 185 71 191 220 340 402 400 119 40 242 45 367 13z"/>
<path d="M38028 16120 c-227 -57 -418 -202 -529 -400 -147 -261 -130 -615 40
-857 289 -410 861 -484 1252 -160 127 105 232 282 265 446 25 124 16 318 -20
426 -68 210 -217 380 -421 482 -120 61 -186 75 -355 79 -129 3 -168 0 -232
-16z m281 -150 c158 -20 294 -91 402 -208 199 -218 225 -558 61 -800 -117
-172 -338 -292 -537 -292 -79 0 -197 30 -284 72 -68 32 -101 57 -166 122 -93
93 -145 183 -175 302 -96 373 165 755 548 804 31 4 59 8 62 9 3 0 43 -4 89 -9z"/>
<path d="M23830 15325 l0 -788 318 6 c382 6 455 16 587 82 192 94 312 254 361
480 23 108 23 331 -1 440 -41 194 -140 346 -285 439 -156 101 -238 116 -662
123 l-318 6 0 -788z m714 586 c97 -26 156 -59 221 -126 107 -109 156 -253 157
-455 0 -311 -125 -514 -362 -584 -58 -18 -280 -35 -442 -36 l-98 0 0 616 0
617 223 -6 c180 -4 237 -9 301 -26z"/>
<path d="M31050 15325 l0 -785 390 0 390 0 0 90 0 90 -300 0 -300 0 0 695 0
695 -90 0 -90 0 0 -785z"/>
<path d="M35230 15325 l0 -785 238 0 c265 0 443 12 535 36 175 44 337 174 417
333 70 140 83 207 83 416 0 152 -3 192 -21 256 -40 148 -124 283 -228 369
-154 127 -319 160 -795 160 l-229 0 0 -785z m595 604 c163 -18 258 -60 343
-154 105 -115 146 -242 146 -450 0 -215 -45 -345 -160 -462 -112 -114 -213
-141 -538 -145 l-201 -3 -3 613 -2 612 160 0 c89 0 203 -5 255 -11z"/>
<path d="M41570 16025 l0 -85 218 -2 217 -3 3 -697 2 -698 90 0 90 0 2 698 3
697 223 3 222 2 0 85 0 85 -535 0 -535 0 0 -85z"/>
<path d="M42850 15325 l0 -785 90 0 90 0 2 393 3 392 418 3 417 2 0 -395 0
-395 95 0 95 0 0 785 0 785 -95 0 -95 0 0 -305 0 -305 -417 2 -418 3 -3 303
-2 302 -90 0 -90 0 0 -785z"/>
<path d="M44440 15325 l0 -785 410 0 410 0 0 85 0 85 -320 0 -320 0 0 305 0
305 320 0 320 0 0 85 0 85 -320 0 -320 0 0 225 0 225 320 0 320 0 0 85 0 85
-410 0 -410 0 0 -785z"/>
<path d="M19320 15249 c-180 -20 -551 -114 -1066 -269 -460 -139 -506 -150
-619 -150 -78 0 -104 5 -190 36 -281 100 -748 248 -900 284 -505 122 -936 76
-1400 -149 -457 -222 -803 -578 -1067 -1101 -159 -314 -264 -648 -312 -997
-108 -776 71 -1858 451 -2738 324 -748 821 -1439 1353 -1881 201 -167 341
-228 551 -241 129 -8 232 9 419 67 388 122 833 254 910 271 146 32 322 44 458
30 150 -15 162 -18 772 -194 278 -81 539 -152 580 -158 112 -17 286 -6 393 25
218 64 399 193 678 483 288 299 535 660 766 1118 104 206 380 784 390 817 4
12 -21 29 -109 74 -344 176 -642 450 -843 775 -424 685 -440 1575 -41 2253
150 255 374 488 623 649 l92 59 -37 58 c-355 558 -1190 954 -1852 879z"/>
<path d="M38325 13324 c-353 -47 -623 -169 -845 -381 -49 -46 -112 -115 -139
-152 -164 -220 -231 -515 -186 -811 35 -235 124 -410 294 -581 178 -178 405
-324 860 -552 343 -171 483 -260 592 -374 94 -99 130 -170 137 -268 15 -250
-156 -461 -437 -537 -106 -29 -353 -31 -456 -4 -163 44 -283 111 -395 225 -63
63 -96 107 -125 163 -22 43 -43 78 -46 78 -4 0 -107 -114 -230 -252 -122 -139
-233 -264 -245 -278 l-24 -26 47 -69 c132 -199 304 -338 538 -436 295 -123
698 -165 1075 -113 337 48 611 175 820 383 177 176 281 379 325 636 24 139 22
361 -3 480 -95 443 -460 784 -1157 1080 -536 227 -749 439 -708 705 15 97 55
173 127 246 109 109 263 164 461 164 264 0 461 -97 586 -287 l47 -73 261 251
c144 137 261 253 261 257 0 4 -36 49 -79 98 -216 249 -490 392 -826 433 -120
15 -406 12 -530 -5z"/>
<path d="M25205 13228 c-3 -7 -360 -948 -795 -2091 -434 -1143 -790 -2080
-790 -2082 0 -3 216 -5 480 -5 l479 0 31 98 c16 53 81 252 144 442 l114 345
814 3 815 2 169 -442 169 -443 509 -3 c481 -2 508 -1 504 15 -4 15 -1549 4019
-1595 4136 l-15 37 -514 0 c-403 0 -516 -3 -519 -12z m525 -828 c44 -260 78
-372 318 -1065 l240 -690 -581 -3 c-319 -1 -581 -1 -583 0 -1 2 101 309 228
683 233 691 262 791 324 1128 10 53 21 94 24 90 4 -5 17 -69 30 -143z"/>
<path d="M40670 12325 l0 -465 -195 0 -195 0 0 -320 0 -320 195 0 195 0 0
-1085 0 -1085 410 0 410 0 0 1085 0 1085 195 0 195 0 0 320 0 320 -195 0 -195
0 0 465 0 465 -410 0 -410 0 0 -465z"/>
<path d="M29745 11934 c-283 -51 -503 -198 -674 -453 l-56 -84 -3 231 -2 232
-390 0 -390 0 0 -2045 0 -2045 411 0 411 0 -5 733 c-3 451 -9 770 -17 831 -6
54 -9 100 -7 102 2 3 21 -21 41 -52 98 -148 284 -302 438 -363 296 -119 709
-114 981 12 345 160 604 508 695 938 35 161 46 277 46 479 -1 284 -29 477
-101 684 -134 387 -405 658 -760 761 -182 53 -446 70 -618 39z m55 -664 c298
-43 495 -233 577 -556 28 -108 24 -430 -5 -539 -70 -257 -220 -423 -447 -495
-96 -31 -308 -39 -415 -16 -213 45 -383 189 -466 394 -101 251 -90 622 25 850
138 274 411 409 731 362z"/>
<path d="M33396 11939 c-147 -21 -299 -80 -417 -160 -90 -60 -215 -190 -285
-295 l-59 -89 -3 233 -2 232 -390 0 -390 0 0 -2045 0 -2045 411 0 411 0 -5
753 c-3 452 -9 784 -16 831 -6 44 -9 81 -8 83 2 1 23 -25 46 -58 190 -270 442
-408 797 -439 298 -26 571 40 789 190 91 64 243 220 309 319 199 298 291 712
258 1164 -25 359 -99 605 -246 826 -227 341 -577 515 -1026 510 -63 -1 -142
-5 -174 -10z m109 -684 c264 -68 448 -282 500 -580 19 -112 19 -327 0 -438
-42 -242 -170 -426 -359 -516 -108 -52 -199 -71 -338 -71 -217 0 -366 57 -498
189 -87 87 -146 193 -181 326 -27 102 -37 354 -19 476 50 346 263 578 575 630
71 11 249 3 320 -16z"/>
<path d="M43530 11935 c-360 -49 -640 -186 -890 -435 -220 -220 -350 -464
-406 -765 -15 -76 -19 -147 -19 -295 0 -221 15 -326 70 -496 153 -469 563
-841 1057 -959 159 -37 258 -48 448 -48 351 1 635 79 888 246 326 216 546 526
627 885 50 217 54 442 15 677 -98 578 -566 1052 -1155 1169 -190 38 -450 46
-635 21z m495 -765 c190 -60 329 -176 409 -341 66 -136 80 -204 80 -384 -1
-123 -5 -165 -23 -230 -57 -212 -176 -361 -356 -449 -103 -51 -174 -67 -321
-73 -170 -7 -264 10 -394 74 -229 111 -361 332 -377 629 -22 410 182 707 541
789 97 22 351 14 441 -15z"/>
<path d="M47497 11934 c-170 -31 -312 -109 -438 -241 -115 -121 -203 -270
-265 -448 -38 -112 -46 -115 -40 -15 3 47 8 208 11 358 l6 272 -400 0 -401 0
0 -1405 0 -1405 405 0 405 0 0 653 c0 363 5 699 10 759 41 427 218 618 599
647 126 10 267 -3 366 -32 44 -14 87 -26 95 -28 11 -3 25 75 75 426 34 237 59
433 56 436 -12 13 -231 39 -318 38 -48 0 -123 -7 -166 -15z"/>
<path d="M49430 11935 c-288 -40 -512 -138 -731 -322 -234 -196 -411 -493
-473 -794 -32 -156 -39 -252 -33 -454 6 -223 30 -368 88 -531 137 -388 436
-687 815 -813 344 -115 799 -115 1139 1 284 96 532 294 725 579 l41 59 -329
164 -328 164 -57 -73 c-93 -121 -221 -205 -376 -247 -114 -32 -345 -31 -456 0
-112 33 -190 77 -267 153 -93 94 -148 208 -192 402 l-6 27 1058 0 1059 0 6 68
c10 101 8 261 -4 370 -40 366 -164 646 -384 868 -223 224 -486 344 -840 384
-121 13 -338 11 -455 -5z m442 -674 c147 -38 257 -113 329 -224 39 -60 83
-180 95 -254 l7 -43 -643 0 -642 0 7 38 c11 64 52 171 87 229 75 126 217 225
368 257 100 22 301 20 392 -3z"/>
</g>
</svg>
