<?xml version="1.0" standalone="no"?>
<!DOCTYPE svg PUBLIC "-//W3C//DTD SVG 20010904//EN"
 "http://www.w3.org/TR/2001/REC-SVG-20010904/DTD/svg10.dtd">
<svg version="1.0" xmlns="http://www.w3.org/2000/svg"
 width="5986.000000pt" height="2088.000000pt" viewBox="0 0 5986.000000 2088.000000"
 preserveAspectRatio="xMidYMid meet">

<g transform="translate(0.000000,2088.000000) scale(0.100000,-0.100000)"
fill="#000000" stroke="none">
<path d="M32060 15111 l0 -811 90 0 90 0 2 585 3 585 569 -615 c313 -338 571
-615 573 -615 1 0 3 367 3 815 l0 815 -90 0 -90 0 -2 -596 -3 -595 -563 615
c-310 339 -568 618 -573 621 -5 4 -9 -314 -9 -804z"/>
<path d="M23688 15890 c-168 -29 -293 -93 -414 -215 -76 -76 -98 -106 -138
-185 -73 -149 -89 -224 -89 -420 0 -138 3 -178 21 -243 49 -177 168 -346 310
-441 139 -91 267 -126 467 -126 211 0 358 43 490 142 175 133 269 327 282 586
l6 112 -322 0 -321 0 0 -80 0 -80 220 0 220 0 0 -33 c0 -97 -69 -239 -159
-327 -174 -170 -457 -209 -691 -94 -151 75 -278 244 -315 419 -33 160 -12 348
56 494 31 66 54 99 116 161 126 125 245 173 433 172 121 0 225 -27 309 -81 47
-31 137 -119 176 -174 l20 -27 77 62 77 62 -22 30 c-65 94 -194 193 -315 242
-116 47 -352 68 -494 44z"/>
<path d="M30762 15889 c-255 -43 -492 -221 -607 -456 -59 -120 -78 -223 -73
-388 5 -157 28 -244 94 -363 109 -194 315 -350 534 -402 116 -27 294 -27 407
0 316 76 556 320 618 629 24 115 16 307 -15 406 -71 226 -214 392 -426 496
-160 79 -355 107 -532 78z m356 -192 c99 -34 171 -79 248 -156 78 -78 123
-150 161 -256 25 -72 28 -92 27 -210 0 -114 -4 -139 -27 -203 -37 -107 -82
-174 -173 -261 -139 -134 -283 -188 -478 -179 -164 9 -293 67 -415 189 -77 77
-133 166 -164 264 -32 100 -32 290 0 390 67 209 242 378 455 435 103 28 263
22 366 -13z"/>
<path d="M24900 15085 l0 -785 415 0 415 0 0 85 0 85 -320 0 -320 0 0 300 0
300 320 0 320 0 0 85 0 85 -320 0 -320 0 0 230 0 230 320 0 320 0 0 85 0 85
-415 0 -415 0 0 -785z"/>
<path d="M25880 15780 l0 -90 220 0 220 0 0 -695 0 -695 95 0 95 0 0 695 0
695 220 0 220 0 0 90 0 90 -535 0 -535 0 0 -90z"/>
<path d="M27820 15085 l0 -785 90 0 90 0 0 785 0 785 -90 0 -90 0 0 -785z"/>
<path d="M28210 15780 l0 -90 225 0 225 0 0 -695 0 -695 90 0 90 0 2 693 3
692 223 3 222 2 0 90 0 90 -540 0 -540 0 0 -90z"/>
<path d="M36270 11340 l0 -2160 285 0 285 0 0 2160 0 2160 -285 0 -285 0 0
-2160z"/>
<path d="M43910 11340 l0 -2160 285 0 285 0 0 2160 0 2160 -285 0 -285 0 0
-2160z"/>
<path d="M24775 13354 c-298 -30 -459 -65 -675 -148 -523 -203 -951 -667
-1133 -1231 -82 -256 -112 -465 -112 -790 1 -281 13 -388 70 -610 171 -664
658 -1193 1285 -1393 246 -78 444 -107 740 -106 252 1 420 21 625 74 615 159
1074 587 1275 1189 85 252 120 492 120 813 l0 208 -885 0 -885 0 0 -280 0
-280 560 0 c398 0 560 -3 560 -11 0 -35 -45 -221 -71 -296 -111 -313 -348
-574 -652 -718 -378 -179 -891 -175 -1280 9 -273 130 -537 398 -666 677 -150
326 -189 726 -110 1136 56 293 190 558 383 761 198 207 439 341 712 396 363
73 704 33 998 -117 198 -101 365 -255 506 -469 44 -66 80 -125 80 -130 0 -9
495 386 506 403 14 23 -185 278 -310 396 -288 273 -620 428 -1059 494 -126 19
-482 33 -582 23z"/>
<path d="M41280 11226 l0 -2046 300 0 300 0 0 885 0 885 263 0 c580 0 816 44
1041 194 295 197 456 538 456 965 0 175 -19 299 -65 438 -41 122 -77 195 -143
288 -139 197 -327 321 -577 380 -178 43 -253 47 -927 52 l-648 5 0 -2046z
m1142 1449 c135 -17 272 -55 342 -93 108 -59 181 -167 212 -312 23 -108 15
-332 -15 -414 -58 -163 -141 -232 -335 -281 -137 -35 -247 -46 -508 -52 l-238
-6 0 593 0 593 213 -6 c117 -4 265 -13 329 -22z"/>
<path d="M38356 12099 c-305 -33 -628 -185 -835 -390 -167 -165 -271 -353
-332 -599 -21 -84 -23 -119 -24 -295 0 -159 4 -218 19 -285 52 -241 177 -518
315 -701 379 -504 956 -663 1546 -428 319 127 560 333 691 591 l33 66 -199
131 c-110 72 -202 131 -204 131 -3 0 -19 -27 -37 -60 -56 -106 -221 -263 -359
-343 -103 -59 -274 -107 -383 -107 -109 1 -252 45 -363 111 -71 43 -169 138
-221 215 -40 59 -97 164 -91 168 2 1 405 173 896 382 490 208 892 384 892 390
0 15 -70 174 -123 280 -138 275 -363 511 -597 629 -193 97 -415 138 -624 114z
m237 -534 c87 -23 175 -71 240 -134 64 -61 121 -136 113 -149 -8 -13 -1216
-525 -1222 -519 -3 3 -8 50 -11 104 -16 303 152 541 462 659 143 54 304 69
418 39z"/>
<path d="M45870 11889 c-283 -32 -528 -142 -719 -325 -93 -88 -196 -218 -186
-234 8 -13 224 -122 367 -185 l102 -45 60 63 c180 188 364 262 589 237 254
-29 462 -151 540 -317 28 -60 32 -81 35 -172 4 -98 3 -104 -14 -98 -482 141
-658 155 -963 81 -278 -68 -427 -147 -572 -302 -170 -182 -239 -399 -211 -659
21 -188 81 -325 201 -455 116 -126 286 -224 476 -275 88 -23 120 -26 265 -27
185 -1 268 13 400 67 123 50 206 109 322 230 l108 112 0 -167 0 -168 275 0
275 0 0 773 c-1 872 -7 1029 -45 1160 -89 309 -310 509 -705 641 -185 62 -412
86 -600 65z m524 -1388 c76 -27 119 -54 184 -115 65 -61 82 -92 82 -148 0 -52
-36 -157 -75 -218 -41 -65 -131 -156 -199 -202 -135 -93 -328 -158 -466 -158
-135 0 -267 51 -362 138 -118 110 -156 260 -95 379 75 146 289 284 517 334
117 26 328 21 414 -10z"/>
<path d="M28372 11870 c-338 -43 -627 -189 -861 -436 -191 -202 -308 -435
-356 -709 -24 -133 -24 -366 -1 -495 95 -536 505 -976 1033 -1111 338 -86 682
-50 987 103 280 141 531 393 655 659 86 184 120 329 128 549 14 407 -118 743
-401 1025 -273 272 -592 410 -971 420 -77 2 -173 0 -213 -5z m386 -560 c292
-81 523 -334 586 -642 21 -100 21 -286 0 -386 -34 -167 -119 -317 -252 -444
-93 -89 -186 -146 -297 -184 -108 -36 -303 -45 -421 -19 -307 67 -563 332
-628 647 -20 97 -21 282 -2 381 67 349 357 624 706 670 70 10 236 -3 308 -23z"/>
<path d="M31480 11874 c-280 -33 -517 -123 -712 -269 -108 -81 -268 -248 -336
-350 -286 -430 -308 -1018 -55 -1460 211 -369 564 -621 983 -701 140 -26 391
-24 527 5 289 61 519 187 738 406 164 164 268 330 336 537 49 151 63 252 63
443 -1 190 -19 302 -75 462 -160 454 -568 805 -1052 904 -98 20 -334 33 -417
23z m345 -564 c206 -53 411 -224 516 -432 105 -208 117 -515 29 -735 -80 -199
-236 -365 -431 -458 -97 -46 -189 -65 -321 -65 -233 0 -408 72 -572 237 -193
193 -279 449 -246 727 15 124 40 210 91 304 188 352 556 519 934 422z"/>
<path d="M34310 11865 c-252 -36 -468 -138 -637 -303 -263 -256 -393 -610
-393 -1067 0 -435 120 -775 363 -1033 240 -253 565 -377 947 -359 270 13 503
113 688 297 39 38 74 70 78 70 11 0 -7 -390 -22 -480 -32 -184 -140 -336 -295
-413 -134 -66 -207 -80 -424 -81 -218 -1 -266 8 -405 76 -112 55 -227 167
-285 280 -22 43 -44 78 -48 78 -13 0 -527 -171 -527 -175 0 -16 68 -170 96
-218 203 -346 538 -528 1027 -556 144 -8 342 0 462 19 446 70 799 337 914 690
55 169 54 138 58 1678 l4 1422 -286 0 -285 0 0 -137 0 -136 -77 74 c-95 92
-148 128 -266 184 -197 93 -437 125 -687 90z m490 -561 c307 -71 520 -352 549
-726 37 -469 -153 -807 -509 -905 -91 -25 -357 -25 -450 1 -352 96 -539 422
-516 896 21 437 232 698 606 750 82 11 236 4 320 -16z"/>
<path d="M14984 10328 c-2598 -2621 -3149 -3179 -3153 -3190 -6 -18 147 -3
211 20 31 11 330 170 665 353 1660 908 3007 1645 3754 2054 454 250 924 506
1045 571 242 129 418 232 449 260 20 19 11 28 -711 747 l-730 728 -1530 -1543z"/>
<path d="M47260 11786 c0 -2 223 -516 496 -1143 273 -626 496 -1142 496 -1148
1 -5 -157 -350 -349 -765 l-350 -755 315 -3 c173 -1 317 0 319 2 5 4 1697
3751 1714 3794 l9 22 -313 0 -312 0 -354 -826 c-211 -493 -357 -821 -361 -813
-4 8 -155 380 -336 827 l-328 812 -323 0 c-178 0 -323 -2 -323 -4z"/>
</g>
</svg>
