<svg width="236" height="81" viewBox="0 0 236 81" fill="none" xmlns="http://www.w3.org/2000/svg">
<path d="M90.8623 47.834V22.9762H98.5327V32.2801H105.955V22.9762H113.625V47.834H105.955V38.2815H98.5327V47.834H90.8623ZM115.136 47.834L123.09 26.1012C123.54 24.9175 124.274 24.0297 125.292 23.4378C126.333 22.8223 127.505 22.5146 128.807 22.5146C130.109 22.5146 131.269 22.8105 132.287 23.4023C133.329 23.9942 134.075 24.882 134.525 26.0657L142.479 47.834H134.347L132.998 43.5016H124.51L123.09 47.834H115.136ZM126.108 37.6423H131.4L129.091 29.6523C129.068 29.5813 129.032 29.5339 128.985 29.5102C128.938 29.4629 128.878 29.4392 128.807 29.4392C128.76 29.4392 128.713 29.4629 128.665 29.5102C128.618 29.5339 128.582 29.5813 128.559 29.6523L126.108 37.6423ZM143.505 47.834V22.9762H154.691C156.466 22.9762 158.088 23.3668 159.556 24.1481C161.024 24.9056 162.195 25.971 163.071 27.3441C163.947 28.6935 164.385 30.2678 164.385 32.067C164.385 33.8663 163.947 35.4643 163.071 36.8611C162.195 38.2341 161.024 39.3113 159.556 40.0926C158.088 40.8738 156.466 41.2644 154.691 41.2644H151.175V47.834H143.505ZM151.175 35.2631H153.874C154.371 35.2631 154.821 35.1447 155.223 34.9079C155.65 34.6475 155.993 34.2924 156.253 33.8426C156.514 33.3691 156.644 32.8009 156.644 32.1381C156.644 31.4752 156.514 30.907 156.253 30.4335C155.993 29.9601 155.65 29.6049 155.223 29.3682C154.821 29.1078 154.371 28.9776 153.874 28.9776H151.175V35.2631ZM166.844 47.834V22.9762H178.03C179.805 22.9762 181.427 23.3668 182.895 24.1481C184.362 24.9056 185.534 25.971 186.41 27.3441C187.286 28.6935 187.724 30.2678 187.724 32.067C187.724 33.8663 187.286 35.4643 186.41 36.8611C185.534 38.2341 184.362 39.3113 182.895 40.0926C181.427 40.8738 179.805 41.2644 178.03 41.2644H174.514V47.834H166.844ZM174.514 35.2631H177.213C177.71 35.2631 178.16 35.1447 178.562 34.9079C178.988 34.6475 179.332 34.2924 179.592 33.8426C179.852 33.3691 179.983 32.8009 179.983 32.1381C179.983 31.4752 179.852 30.907 179.592 30.4335C179.332 29.9601 178.988 29.6049 178.562 29.3682C178.16 29.1078 177.71 28.9776 177.213 28.9776H174.514V35.2631ZM195.997 47.834V41.2289C194.552 40.8028 193.31 40.1399 192.268 39.2403C191.25 38.3407 190.457 37.228 189.889 35.9022C189.344 34.5528 189.072 33.0377 189.072 31.3568V22.9762H196.458V31.6409C196.458 32.3748 196.588 33.0377 196.849 33.6295C197.133 34.1977 197.524 34.6475 198.021 34.979C198.542 35.2867 199.145 35.4406 199.832 35.4406C200.542 35.4406 201.146 35.2867 201.643 34.979C202.164 34.6475 202.566 34.1977 202.85 33.6295C203.134 33.0377 203.276 32.3748 203.276 31.6409V22.9762H210.663V31.3568C210.663 33.0377 210.379 34.5528 209.81 35.9022C209.242 37.228 208.437 38.3407 207.396 39.2403C206.354 40.1399 205.111 40.8028 203.667 41.2289V47.834H195.997ZM214.155 47.834V41.8326H224.702C225.105 41.8326 225.436 41.7497 225.697 41.584C225.981 41.4183 226.194 41.2052 226.336 40.9448C226.502 40.6607 226.584 40.3648 226.584 40.0571C226.584 39.7256 226.502 39.4297 226.336 39.1693C226.194 38.8852 225.981 38.6603 225.697 38.4946C225.436 38.3288 225.105 38.246 224.702 38.246H221.506C219.967 38.246 218.571 37.9501 217.316 37.3582C216.061 36.7664 215.055 35.9141 214.298 34.8014C213.564 33.665 213.197 32.3038 213.197 30.7176C213.197 29.1551 213.552 27.7939 214.262 26.6339C214.972 25.4738 215.931 24.5742 217.138 23.935C218.346 23.2958 219.683 22.9762 221.151 22.9762H232.479V28.9776H222.181C221.85 28.9776 221.554 29.0486 221.293 29.1906C221.056 29.3327 220.867 29.5221 220.725 29.7588C220.607 29.9956 220.547 30.256 220.547 30.5401C220.547 30.8242 220.607 31.0846 220.725 31.3213C220.867 31.5581 221.056 31.7593 221.293 31.925C221.554 32.067 221.85 32.1381 222.181 32.1381H225.626C227.306 32.1381 228.774 32.4577 230.029 33.0969C231.284 33.7124 232.254 34.5765 232.941 35.6892C233.627 36.8019 233.971 38.1158 233.971 39.6309C233.971 41.3591 233.604 42.8388 232.87 44.0698C232.16 45.3009 231.201 46.236 229.993 46.8752C228.786 47.5144 227.448 47.834 225.981 47.834H214.155Z" fill="white"/>
<path d="M93.3962 69.5257C92.9534 69.5257 92.5356 69.4631 92.1429 69.3377C91.7502 69.2124 91.3909 69.0244 91.065 68.7737C90.7392 68.5231 90.4509 68.2139 90.2002 67.8463L90.877 67.0943C91.2698 67.6541 91.6708 68.0468 92.0802 68.2724C92.498 68.498 92.9659 68.6108 93.484 68.6108C93.86 68.6108 94.2026 68.5481 94.5117 68.4228C94.8209 68.2975 95.0632 68.122 95.2386 67.8964C95.4141 67.6708 95.5018 67.4118 95.5018 67.1193C95.5018 66.9271 95.4684 66.7559 95.4016 66.6055C95.3431 66.4551 95.2512 66.3214 95.1258 66.2044C95.0005 66.0874 94.8459 65.983 94.6621 65.8911C94.4783 65.7991 94.2652 65.7156 94.0229 65.6404C93.789 65.5652 93.5258 65.49 93.2333 65.4148C92.8072 65.3145 92.4312 65.1975 92.1053 65.0639C91.7878 64.9218 91.5162 64.7505 91.2906 64.55C91.0734 64.3495 90.9063 64.1197 90.7893 63.8607C90.6807 63.5933 90.6264 63.2799 90.6264 62.9207C90.6264 62.5781 90.6974 62.2606 90.8394 61.9681C90.9898 61.6757 91.1946 61.425 91.4536 61.2161C91.7126 60.9989 92.0176 60.8318 92.3685 60.7148C92.7194 60.5978 93.0954 60.5393 93.4965 60.5393C93.9477 60.5393 94.3488 60.602 94.6997 60.7273C95.059 60.8443 95.3765 61.0198 95.6522 61.2537C95.928 61.4877 96.1661 61.7676 96.3666 62.0935L95.6773 62.7703C95.5018 62.4945 95.3013 62.2564 95.0757 62.0559C94.8585 61.8553 94.6162 61.7049 94.3488 61.6047C94.0898 61.496 93.8015 61.4417 93.484 61.4417C93.1163 61.4417 92.7905 61.5044 92.5064 61.6297C92.2306 61.7551 92.0134 61.9305 91.8546 62.1561C91.6959 62.3734 91.6165 62.624 91.6165 62.9081C91.6165 63.117 91.6541 63.305 91.7293 63.4721C91.8045 63.6309 91.9215 63.7729 92.0802 63.8983C92.2474 64.0152 92.4604 64.1239 92.7194 64.2241C92.9868 64.316 93.3043 64.4038 93.672 64.4873C94.1065 64.5876 94.495 64.7087 94.8376 64.8508C95.1885 64.9928 95.4851 65.1641 95.7274 65.3647C95.9781 65.5568 96.1661 65.7824 96.2914 66.0415C96.4251 66.3005 96.492 66.5971 96.492 66.9313C96.492 67.4494 96.3625 67.9047 96.1034 68.2975C95.8444 68.6818 95.481 68.9826 95.013 69.1999C94.5535 69.4171 94.0146 69.5257 93.3962 69.5257ZM102.538 69.5257C102.037 69.5257 101.611 69.4255 101.26 69.2249C100.917 69.016 100.654 68.7152 100.47 68.3225C100.295 67.9298 100.207 67.441 100.207 66.8561V62.858H101.159V66.6681C101.159 67.111 101.218 67.4828 101.335 67.7836C101.46 68.076 101.644 68.2975 101.886 68.4479C102.137 68.5983 102.442 68.6735 102.801 68.6735C103.077 68.6735 103.332 68.6275 103.566 68.5356C103.8 68.4353 104.004 68.3016 104.18 68.1345C104.355 67.9674 104.493 67.7711 104.594 67.5455C104.694 67.3199 104.744 67.0817 104.744 66.8311V62.858C104.953 62.858 105.132 62.8287 105.283 62.7703C105.442 62.7118 105.571 62.6282 105.671 62.5196C105.772 62.4026 105.847 62.2606 105.897 62.0935C105.947 61.918 105.972 61.7175 105.972 61.4919H106.787C106.787 61.8344 106.728 62.1436 106.611 62.4193C106.503 62.6867 106.34 62.9081 106.123 63.0836C105.905 63.2507 105.63 63.3635 105.295 63.422L105.684 62.9207V69.4004H104.756L104.719 67.7084L104.857 67.9465C104.773 68.239 104.61 68.5063 104.368 68.7487C104.134 68.9826 103.858 69.1706 103.541 69.3127C103.223 69.4547 102.889 69.5257 102.538 69.5257ZM102.162 61.8929L101.824 61.3791L103.603 59.8876L104.218 60.6772L102.162 61.8929ZM112.402 69.5257C111.784 69.5257 111.232 69.3795 110.748 69.0871C110.263 68.7863 109.879 68.381 109.595 67.8713C109.319 67.3533 109.181 66.7684 109.181 66.1167C109.181 65.4649 109.319 64.8842 109.595 64.3745C109.879 63.8565 110.263 63.4512 110.748 63.1588C111.232 62.8663 111.788 62.7201 112.415 62.7201C112.975 62.7201 113.484 62.8329 113.944 63.0585C114.403 63.2758 114.771 63.5807 115.047 63.9735L114.495 64.6503C114.336 64.4414 114.144 64.2575 113.919 64.0988C113.701 63.94 113.463 63.8189 113.204 63.7353C112.954 63.6434 112.703 63.5975 112.452 63.5975C112.009 63.5975 111.613 63.7103 111.262 63.9359C110.911 64.1531 110.631 64.4497 110.422 64.8257C110.221 65.2017 110.121 65.632 110.121 66.1167C110.121 66.6013 110.221 67.0358 110.422 67.4201C110.631 67.7961 110.911 68.0927 111.262 68.31C111.613 68.5272 112.005 68.6359 112.44 68.6359C112.69 68.6359 112.937 68.5983 113.179 68.5231C113.422 68.4395 113.651 68.3225 113.869 68.1721C114.086 68.0217 114.286 67.8337 114.47 67.6081L115.022 68.2849C114.738 68.6609 114.357 68.9617 113.881 69.1873C113.405 69.4129 112.912 69.5257 112.402 69.5257ZM124.856 67.2948L124.818 66.2044L128.24 62.858H129.506L124.856 67.2948ZM124.016 69.4004V60.1257H124.956V69.4004H124.016ZM128.503 69.4004L125.746 66.2044L126.41 65.5527L129.731 69.4004H128.503ZM132.83 69.4004V60.1257H133.77V64.2868L133.582 64.4748C133.673 64.1322 133.845 63.8314 134.095 63.5724C134.346 63.305 134.639 63.0961 134.973 62.9457C135.315 62.7953 135.662 62.7201 136.013 62.7201C136.514 62.7201 136.932 62.8162 137.266 63.0084C137.601 63.2006 137.847 63.4972 138.006 63.8983C138.173 64.2993 138.256 64.809 138.256 65.4273V69.4004H137.304V65.4775C137.304 65.043 137.245 64.6879 137.128 64.4121C137.02 64.128 136.849 63.9191 136.615 63.7855C136.381 63.6518 136.088 63.5891 135.737 63.5975C135.462 63.5975 135.203 63.6476 134.96 63.7479C134.718 63.8398 134.509 63.9693 134.334 64.1364C134.158 64.3035 134.02 64.4957 133.92 64.7129C133.82 64.9302 133.77 65.1641 133.77 65.4148V69.4004H133.306C133.247 69.4004 133.18 69.4004 133.105 69.4004C133.03 69.4004 132.938 69.4004 132.83 69.4004ZM145.077 69.5257C144.425 69.5257 143.844 69.3795 143.335 69.0871C142.833 68.7946 142.436 68.3894 142.144 67.8713C141.86 67.3533 141.718 66.7642 141.718 66.1041C141.718 65.4524 141.86 64.8717 142.144 64.362C142.436 63.8523 142.833 63.4512 143.335 63.1588C143.844 62.8663 144.425 62.7201 145.077 62.7201C145.72 62.7201 146.292 62.8663 146.794 63.1588C147.304 63.4512 147.7 63.8523 147.984 64.362C148.277 64.8717 148.423 65.4524 148.423 66.1041C148.423 66.7642 148.277 67.3533 147.984 67.8713C147.7 68.3894 147.304 68.7946 146.794 69.0871C146.292 69.3795 145.72 69.5257 145.077 69.5257ZM145.077 68.6359C145.536 68.6359 145.946 68.5272 146.305 68.31C146.664 68.0844 146.944 67.7836 147.145 67.4076C147.345 67.0232 147.446 66.5887 147.446 66.1041C147.446 65.6195 147.345 65.1892 147.145 64.8132C146.944 64.4372 146.664 64.1447 146.305 63.9359C145.946 63.7186 145.536 63.61 145.077 63.61C144.617 63.61 144.204 63.7186 143.836 63.9359C143.477 64.1447 143.193 64.4414 142.984 64.8257C142.783 65.2017 142.687 65.6279 142.695 66.1041C142.687 66.5887 142.783 67.0232 142.984 67.4076C143.193 67.7836 143.477 68.0844 143.836 68.31C144.204 68.5272 144.617 68.6359 145.077 68.6359ZM144.864 61.9305C144.822 61.8637 144.788 61.7968 144.763 61.73C144.738 61.6548 144.726 61.5879 144.726 61.5295C144.726 61.4626 144.747 61.3874 144.788 61.3039C144.83 61.2203 144.918 61.1326 145.052 61.0407C145.185 60.9487 145.286 60.8735 145.352 60.8151C145.428 60.7566 145.465 60.6939 145.465 60.6271C145.465 60.5351 145.415 60.4683 145.315 60.4265C145.223 60.3847 145.106 60.3639 144.964 60.3639C144.839 60.3639 144.697 60.3847 144.538 60.4265C144.379 60.4599 144.224 60.5101 144.074 60.5769L143.886 59.9503C144.07 59.8583 144.262 59.7915 144.463 59.7497C144.672 59.6996 144.86 59.6745 145.027 59.6745C145.436 59.6745 145.741 59.7623 145.942 59.9377C146.142 60.1132 146.242 60.3179 146.242 60.5519C146.242 60.744 146.192 60.8944 146.092 61.0031C145.992 61.1117 145.883 61.1994 145.766 61.2663C145.649 61.3331 145.557 61.3916 145.49 61.4417C145.424 61.4919 145.39 61.5629 145.39 61.6548C145.39 61.6715 145.39 61.6924 145.39 61.7175C145.398 61.7342 145.407 61.7592 145.415 61.7927L144.864 61.9305ZM154.808 69.5257C154.156 69.5257 153.575 69.3837 153.066 69.0996C152.564 68.8155 152.172 68.4186 151.888 67.9089C151.604 67.3992 151.462 66.8143 151.462 66.1543C151.462 65.6446 151.541 65.185 151.7 64.7756C151.858 64.3578 152.08 63.9943 152.364 63.6852C152.656 63.376 153.003 63.1379 153.404 62.9708C153.805 62.7953 154.24 62.7076 154.708 62.7076C155.15 62.7076 155.552 62.787 155.911 62.9457C156.278 63.1045 156.592 63.3259 156.851 63.61C157.118 63.8857 157.319 64.2158 157.452 64.6001C157.586 64.9845 157.645 65.4064 157.628 65.866L157.615 66.3047H152.163L152.026 65.5151H156.901L156.675 65.7281V65.4273C156.659 65.1265 156.571 64.8383 156.412 64.5625C156.253 64.2784 156.028 64.0487 155.735 63.8732C155.451 63.6977 155.109 63.61 154.708 63.61C154.24 63.61 153.834 63.7061 153.492 63.8983C153.149 64.0821 152.886 64.3578 152.702 64.7255C152.518 65.0931 152.427 65.5485 152.427 66.0916C152.427 66.6096 152.527 67.0608 152.727 67.4452C152.928 67.8212 153.212 68.1136 153.58 68.3225C153.956 68.5314 154.407 68.6359 154.933 68.6359C155.242 68.6359 155.547 68.5857 155.848 68.4855C156.157 68.3768 156.496 68.1679 156.863 67.8588L157.352 68.5356C157.16 68.7278 156.93 68.8991 156.663 69.0495C156.395 69.1915 156.103 69.3085 155.786 69.4004C155.468 69.4839 155.142 69.5257 154.808 69.5257ZM167.639 69.4004V61.1409H168.579V69.4004H167.639ZM166.161 63.7604V62.858H170.234V63.7604H166.161ZM175.837 69.5257C175.336 69.5257 174.91 69.4255 174.559 69.2249C174.216 69.016 173.953 68.7152 173.769 68.3225C173.594 67.9298 173.506 67.441 173.506 66.8561V62.858H174.459V66.6681C174.459 67.111 174.517 67.4828 174.634 67.7836C174.76 68.076 174.943 68.2975 175.186 68.4479C175.436 68.5983 175.741 68.6735 176.101 68.6735C176.376 68.6735 176.631 68.6275 176.865 68.5356C177.099 68.4353 177.304 68.3016 177.479 68.1345C177.655 67.9674 177.793 67.7711 177.893 67.5455C177.993 67.3199 178.043 67.0817 178.043 66.8311V62.858C178.252 62.858 178.432 62.8287 178.582 62.7703C178.741 62.7118 178.871 62.6282 178.971 62.5196C179.071 62.4026 179.146 62.2606 179.196 62.0935C179.247 61.918 179.272 61.7175 179.272 61.4919H180.086C180.086 61.8344 180.028 62.1436 179.911 62.4193C179.802 62.6867 179.639 62.9081 179.422 63.0836C179.205 63.2507 178.929 63.3635 178.595 63.422L178.983 62.9207V69.4004H178.056L178.018 67.7084L178.156 67.9465C178.073 68.239 177.91 68.5063 177.667 68.7487C177.433 68.9826 177.158 69.1706 176.84 69.3127C176.523 69.4547 176.188 69.5257 175.837 69.5257ZM185.839 69.5257C185.188 69.5257 184.607 69.3795 184.097 69.0871C183.596 68.7946 183.199 68.3894 182.907 67.8713C182.623 67.3533 182.481 66.7642 182.481 66.1041C182.481 65.4524 182.623 64.8717 182.907 64.362C183.199 63.8523 183.596 63.4512 184.097 63.1588C184.607 62.8663 185.188 62.7201 185.839 62.7201C185.998 62.7201 186.149 62.7327 186.291 62.7577C186.441 62.7744 186.579 62.7953 186.704 62.8204C186.788 62.8371 186.867 62.8496 186.942 62.858C187.018 62.8663 187.089 62.8705 187.155 62.8705C187.523 62.8705 187.795 62.7577 187.97 62.5321C188.146 62.2982 188.233 61.9514 188.233 61.4919H189.048C189.048 61.8511 188.99 62.1728 188.873 62.4569C188.756 62.7327 188.584 62.9624 188.359 63.1463C188.133 63.3217 187.849 63.4303 187.506 63.4721L187.594 63.1964C188.087 63.4721 188.476 63.8648 188.76 64.3745C189.044 64.8759 189.186 65.4524 189.186 66.1041C189.186 66.7642 189.04 67.3533 188.747 67.8713C188.463 68.3894 188.066 68.7946 187.557 69.0871C187.055 69.3795 186.483 69.5257 185.839 69.5257ZM185.839 68.6359C186.299 68.6359 186.708 68.5272 187.068 68.31C187.427 68.0844 187.707 67.7836 187.907 67.4076C188.108 67.0232 188.208 66.5887 188.208 66.1041C188.208 65.6195 188.108 65.1892 187.907 64.8132C187.707 64.4372 187.427 64.1447 187.068 63.9359C186.708 63.7186 186.299 63.61 185.839 63.61C185.38 63.61 184.966 63.7186 184.599 63.9359C184.239 64.1447 183.955 64.4414 183.746 64.8257C183.546 65.2017 183.45 65.6279 183.458 66.1041C183.45 66.5887 183.546 67.0232 183.746 67.4076C183.955 67.7836 184.239 68.0844 184.599 68.31C184.966 68.5272 185.38 68.6359 185.839 68.6359ZM192.688 69.4004V62.858H193.615L193.653 64.2241L193.503 64.2868C193.586 64.0027 193.749 63.7437 193.991 63.5097C194.234 63.2758 194.522 63.0878 194.856 62.9457C195.199 62.7953 195.55 62.7201 195.909 62.7201C196.394 62.7201 196.799 62.8162 197.125 63.0084C197.451 63.2006 197.697 63.4972 197.864 63.8983C198.031 64.2993 198.115 64.809 198.115 65.4273V69.4004H197.162V65.4775C197.162 65.043 197.104 64.6879 196.987 64.4121C196.878 64.128 196.707 63.9191 196.473 63.7855C196.239 63.6518 195.951 63.5891 195.608 63.5975C195.324 63.5975 195.061 63.6476 194.819 63.7479C194.576 63.8398 194.367 63.9693 194.192 64.1364C194.016 64.3035 193.879 64.4957 193.778 64.7129C193.678 64.9302 193.628 65.1641 193.628 65.4148V69.4004H193.164C193.106 69.4004 193.039 69.4004 192.964 69.4004C192.888 69.4004 192.797 69.4004 192.688 69.4004ZM204.86 72.2831C204.375 72.2831 203.916 72.2079 203.481 72.0575C203.047 71.9071 202.688 71.7191 202.403 71.4935L202.779 70.7039C202.947 70.8375 203.139 70.9545 203.356 71.0548C203.582 71.1634 203.824 71.247 204.083 71.3055C204.342 71.3723 204.605 71.4057 204.873 71.4057C205.357 71.4057 205.767 71.3138 206.101 71.13C206.443 70.9545 206.702 70.6913 206.878 70.3404C207.062 69.9895 207.154 69.555 207.154 69.0369V67.7836L207.304 67.746C207.229 68.0635 207.066 68.3601 206.815 68.6359C206.565 68.9032 206.26 69.1205 205.9 69.2876C205.541 69.4463 205.161 69.5257 204.76 69.5257C204.15 69.5257 203.602 69.3795 203.118 69.0871C202.642 68.7946 202.266 68.3935 201.99 67.8839C201.714 67.3658 201.576 66.7809 201.576 66.1292C201.576 65.4691 201.714 64.8842 201.99 64.3745C202.274 63.8565 202.654 63.4512 203.13 63.1588C203.607 62.8663 204.141 62.7201 204.735 62.7201C204.994 62.7201 205.244 62.7535 205.487 62.8204C205.729 62.8789 205.95 62.9666 206.151 63.0836C206.36 63.2006 206.548 63.3343 206.715 63.4847C206.882 63.6351 207.02 63.798 207.129 63.9735C207.245 64.1489 207.329 64.3286 207.379 64.5124L207.116 64.4748L207.154 62.858H208.094V68.9993C208.094 69.5257 208.018 69.9895 207.868 70.3905C207.718 70.7999 207.496 71.1425 207.204 71.4183C206.92 71.7023 206.577 71.9154 206.176 72.0575C205.783 72.2079 205.345 72.2831 204.86 72.2831ZM204.873 68.6233C205.315 68.6233 205.708 68.5189 206.051 68.31C206.402 68.0927 206.677 67.7961 206.878 67.4201C207.078 67.0441 207.179 66.6096 207.179 66.1167C207.179 65.632 207.078 65.2017 206.878 64.8257C206.686 64.4497 206.414 64.1531 206.063 63.9359C205.712 63.7186 205.315 63.61 204.873 63.61C204.421 63.61 204.02 63.7186 203.669 63.9359C203.327 64.1531 203.055 64.4497 202.855 64.8257C202.654 65.2017 202.554 65.632 202.554 66.1167C202.554 66.5929 202.65 67.0232 202.842 67.4076C203.043 67.7836 203.314 68.0802 203.657 68.2975C204.008 68.5147 204.413 68.6233 204.873 68.6233ZM217.721 69.4004V60.1257H218.661V69.4004H217.721ZM225.077 69.5257C224.508 69.5257 223.994 69.3795 223.535 69.0871C223.075 68.7863 222.712 68.381 222.445 67.8713C222.177 67.3533 222.043 66.7684 222.043 66.1167C222.043 65.4566 222.181 64.8717 222.457 64.362C222.733 63.8523 223.1 63.4512 223.56 63.1588C224.028 62.8663 224.55 62.7201 225.127 62.7201C225.469 62.7201 225.787 62.7703 226.079 62.8705C226.372 62.9708 226.631 63.1128 226.856 63.2967C227.09 63.4721 227.282 63.681 227.433 63.9233C227.592 64.1573 227.7 64.4121 227.759 64.6879L227.483 64.55L227.521 62.858H228.461V69.4004H227.508V67.7961L227.759 67.6332C227.7 67.8839 227.587 68.1262 227.42 68.3601C227.253 68.5857 227.048 68.7863 226.806 68.9617C226.572 69.1372 226.305 69.2751 226.004 69.3753C225.712 69.4756 225.402 69.5257 225.077 69.5257ZM225.29 68.6233C225.724 68.6233 226.113 68.5189 226.455 68.31C226.798 68.0927 227.065 67.7961 227.257 67.4201C227.458 67.0358 227.558 66.6013 227.558 66.1167C227.558 65.632 227.458 65.2017 227.257 64.8257C227.065 64.4497 226.798 64.1531 226.455 63.9359C226.113 63.7186 225.724 63.61 225.29 63.61C224.847 63.61 224.454 63.7186 224.111 63.9359C223.777 64.1531 223.51 64.4497 223.309 64.8257C223.117 65.2017 223.021 65.632 223.021 66.1167C223.021 66.5929 223.117 67.0232 223.309 67.4076C223.502 67.7836 223.769 68.0802 224.111 68.2975C224.454 68.5147 224.847 68.6233 225.29 68.6233ZM232.673 69.4004V62.858H233.613V69.4004H232.673ZM233.137 61.4417C232.903 61.4417 232.723 61.3832 232.598 61.2663C232.481 61.1409 232.423 60.9738 232.423 60.7649C232.423 60.556 232.485 60.3889 232.611 60.2636C232.736 60.1383 232.911 60.0756 233.137 60.0756C233.363 60.0756 233.538 60.1383 233.663 60.2636C233.789 60.3806 233.851 60.5477 233.851 60.7649C233.851 60.9655 233.789 61.1284 233.663 61.2537C233.538 61.3791 233.363 61.4417 233.137 61.4417Z" fill="white"/>
<path d="M52.3105 53.0786C64.8961 41.7463 80.7508 36.6599 80.7508 36.6599C80.7508 36.6599 71.2568 32.4821 55.4282 33.0513C55.3081 40.5035 54.0757 47.214 52.3105 53.0786Z" fill="white"/>
<path d="M25.2333 15.5936C29.5393 15.5936 33.0301 12.1028 33.0301 7.79678C33.0301 3.49074 29.5393 0 25.2333 0C20.9273 0 17.4365 3.49074 17.4365 7.79678C17.4365 12.1028 20.9273 15.5936 25.2333 15.5936Z" fill="white"/>
<path d="M51.2099 30.3565C48.8652 37.8608 43.6743 48.4202 32.248 57.5068C34.9793 69.6537 33.8408 80.0146 33.8408 80.0146C33.8408 80.0146 52.9959 60.3947 51.6852 28.748C51.5389 29.2755 51.377 29.8134 51.2099 30.3617V30.3565Z" fill="white"/>
<path d="M47.8309 7.42047L47.8048 7.33691C47.8048 7.33691 42.7966 15.1441 31.689 19.2279C17.6621 24.3875 3.95898 22.8626 3.95898 22.8626C20.2367 28.7846 27.8193 41.6887 31.2869 53.7364C41.1517 45.4591 45.8412 36.0017 48.0554 28.5026C50.0921 21.6197 50.0085 14.2564 47.8309 7.41525V7.42047Z" fill="white"/>
<path d="M8.98744 45.0884C18.1472 62.6559 30.6492 79.367 30.6492 79.367C30.9156 44.0648 1.68678 28.748 1.68678 28.748C0.595333 32.4036 0 36.2785 0 40.2944C0 43.0987 0.287222 45.8404 0.835556 48.4828C3.37878 60.7655 11.5202 70.9958 22.4764 76.3956C13.2174 61.0318 8.98744 45.0884 8.98744 45.0884Z" fill="white"/>
<path d="M38.8955 79.7017C38.8955 79.7017 54.0974 67.8421 65.696 54.0606C65.696 54.0606 57.4292 68.6515 46.9691 77.8218C61.4346 72.8293 72.1611 59.826 73.8426 44.1123C55.0739 53.5959 40.6815 76.746 38.8955 79.7017Z" fill="white"/>
</svg>
