<svg width="420" height="124" viewBox="0 0 420 124" fill="none" xmlns="http://www.w3.org/2000/svg">
<path fill-rule="evenodd" clip-rule="evenodd" d="M-0.00181127 108.386C23.7921 113.554 65.9828 122.564 127.25 122.564C159.766 122.564 189.192 120.119 215.942 117.895C244.527 115.52 270.058 113.398 293.039 114.785C294.696 114.885 296.383 114.988 298.094 115.093C341.645 117.752 401.957 121.435 427.425 104.23L427.425 39.7729L427.203 39.7729L427.203 -70.0045L0.220591 -70.0045L0.220581 39.7731L-0.00194589 39.7731L-0.00181127 108.386Z" fill="#1470F5"/>
<path fill-rule="evenodd" clip-rule="evenodd" d="M414.721 108.594C390.452 114.158 353.784 122.564 300.173 122.564C267.657 122.564 238.231 120.119 211.481 117.895C182.896 115.52 157.365 113.398 134.383 114.785C120.184 115.643 102.522 117.377 84.6642 119.13C47.4263 122.787 9.33502 126.527 -0.00219712 122.575L-0.00218988 39.7727L0.219581 39.7727L0.219591 -70.0047L428.092 -70.0046L428.092 66.9329L426.181 66.9329L424.373 106.417C421.4 107.063 418.187 107.8 414.721 108.594Z" fill="#1470F5" fill-opacity="0.2"/>
</svg>
